# xmcd CD database file
#
# Track frame offsets:
#	150
#	35261
#	73334
#	118534
#	157467
#	194244
#	225812
#	257743
#
# Disc length: 4028 seconds
#
# Revision: 0
# Processed by: cddbd v1.5.2PL0 Copyright (c) Steve Scherf et al.
# Submitted via: CDex 1.51
#
DISCID=720fba08
DTITLE=Bert van den Brink - Reflections
DYEAR=2009
DGENRE=Jazz
TTITLE0=For Horace
TTITLE1=Bagatelle
TTITLE2=En Vacance
TTITLE3=Blues Complex
TTITLE4=Changes for Strangers
TTITLE5=Cheek To Cheek
TTITLE6=Leaving
TTITLE7=Slash Groove
EXTD=YEAR: 2009
EXTT0=
EXTT1=
EXTT2=
EXTT3=
EXTT4=
EXTT5=
EXTT6=
EXTT7=
PLAYORDER=
